<?xml version="1.0" encoding="UTF-8" standalone="no"?>
<!-- Created with Inkscape (http://www.inkscape.org/) -->

<svg
   xmlns:dc="http://purl.org/dc/elements/1.1/"
   xmlns:cc="http://creativecommons.org/ns#"
   xmlns:rdf="http://www.w3.org/1999/02/22-rdf-syntax-ns#"
   xmlns:svg="http://www.w3.org/2000/svg"
   xmlns="http://www.w3.org/2000/svg"
   xmlns:sodipodi="http://sodipodi.sourceforge.net/DTD/sodipodi-0.dtd"
   xmlns:inkscape="http://www.inkscape.org/namespaces/inkscape"
   id="svg4133"
   version="1.1"
   inkscape:version="0.91 r13725"
   width="168.411"
   height="75"
   viewBox="0 0 168.41099 75"
   sodipodi:docname="brand.svg">
  <metadata
     id="metadata4139">
    <rdf:RDF>
      <cc:Work
         rdf:about="">
        <dc:format>image/svg+xml</dc:format>
        <dc:type
           rdf:resource="http://purl.org/dc/dcmitype/StillImage" />
        <dc:title></dc:title>
      </cc:Work>
    </rdf:RDF>
  </metadata>
  <defs
     id="defs4137" />
  <sodipodi:namedview
     pagecolor="#ffffff"
     bordercolor="#666666"
     borderopacity="1"
     objecttolerance="10"
     gridtolerance="10"
     guidetolerance="10"
     inkscape:pageopacity="0"
     inkscape:pageshadow="2"
     inkscape:window-width="1360"
     inkscape:window-height="705"
     id="namedview4135"
     showgrid="false"
     inkscape:zoom="16.746088"
     inkscape:cx="91.911538"
     inkscape:cy="49.81623"
     inkscape:window-x="-8"
     inkscape:window-y="-8"
     inkscape:window-maximized="1"
     inkscape:current-layer="svg4133" />
  <path
     style="fill:#ffffff"
     d="m 49.920439,62.489547 c -12.007638,-0.02105 -14.808306,-0.0362 -15.103107,-0.0817 -1.079799,-0.166716 -2.244616,-0.738066 -3.215866,-1.577401 -0.5148,-0.444883 -1.076117,-1.0703 -1.494834,-1.66555 -0.919201,-1.306716 -1.582534,-3.016101 -1.904201,-4.907101 -0.07053,-0.414701 -0.08335,-0.551568 -0.106183,-1.134135 -0.0373,-0.951533 -0.03718,-30.302393 1.33e-4,-31.228044 0.03427,-0.85045 0.1137,-1.369084 0.357683,-2.335634 0.38965,-1.543534 1.133317,-3.100884 1.994718,-4.177219 0.222567,-0.2781 0.88665,-0.9585 1.200117,-1.229616 0.9398,-0.812817 1.832983,-1.266884 2.977551,-1.513717 l 0.2695,-0.05812 1.706817,-0.0184 c 7.774787,-0.08388 87.425253,-0.08388 95.200033,0 l 1.70684,0.0184 0.26948,0.05812 c 0.60298,0.130033 1.05672,0.288183 1.56084,0.544 0.7118,0.3612 1.29904,0.81325 2.04398,1.573417 0.4567,0.466016 0.67973,0.738434 0.99975,1.221067 0.93651,1.412367 1.53783,3.015634 1.84321,4.914452 0.0398,0.247733 0.0632,0.514933 0.0788,0.9022 0.0333,0.824384 0.0518,25.374809 0.0219,28.903611 -0.0145,1.7081 -0.0337,2.921567 -0.0481,3.043083 -0.18608,1.569201 -0.73105,3.286802 -1.44703,4.560686 -1.25833,2.238833 -3.06327,3.672685 -5.14313,4.085734 l -0.29196,0.05798 -4.46916,0.02183 c -5.66882,0.02772 -66.140544,0.04458 -79.007731,0.02205 z m 83.600421,-1.348883 c 1.00982,-0.289668 1.68734,-0.641468 2.4261,-1.259734 1.09548,-0.916801 2.00199,-2.349001 2.56115,-4.046302 0.20646,-0.626783 0.43575,-1.65485 0.4919,-2.205651 0.0127,-0.123533 0.0338,-1.437334 0.0471,-2.919567 0.0304,-3.388551 0.013,-28.012726 -0.0204,-28.813794 -0.0139,-0.3299 -0.0403,-0.647883 -0.0684,-0.819717 -0.19616,-1.199067 -0.55466,-2.362967 -1.02066,-3.313583 -0.21712,-0.442918 -0.33334,-0.645368 -0.61179,-1.065752 -0.68855,-1.039501 -1.51275,-1.806217 -2.48406,-2.310801 -0.38227,-0.198582 -0.72422,-0.333116 -1.17313,-0.46155 l -0.35757,-0.102283 -49.107872,0 -49.107865,0 -0.346716,0.09902 c -0.483351,0.13805 -0.691667,0.217551 -1.096017,0.418267 -1.28715,0.638934 -2.338518,1.756384 -3.137135,3.334285 -0.4862,0.960634 -0.80755,1.9597 -1.032966,3.2115 l -0.08087,0.449167 -0.02505,1.302584 c -0.03512,1.82535 -0.03462,27.456992 0,29.543677 0.02467,1.463184 0.02753,1.526966 0.08232,1.833668 0.363116,2.032633 1.000967,3.550983 2.056551,4.895435 0.2392,0.304666 0.7928,0.863099 1.09175,1.101316 0.71655,0.57095 1.525484,0.957685 2.344351,1.120801 0.1731,0.03449 0.556267,0.03944 4.109834,0.0532 2.155418,0.0083 24.237393,0.01705 49.071035,0.01933 l 45.152074,0.0042 0.23583,-0.06765 z M 56.815075,59.44168 c -1.348401,-0.02501 -3.604885,-0.227034 -5.367485,-0.480567 -3.582985,-0.515384 -6.605736,-1.433418 -7.889037,-2.395968 -0.529566,-0.3972 -1.034384,-0.946967 -1.147732,-1.24995 -0.09372,-0.250434 -0.110784,-0.602267 -0.04315,-0.888967 0.104866,-0.44445 0.617766,-1.023385 1.298166,-1.465285 1.319418,-0.856933 3.843919,-1.646666 6.905887,-2.160366 1.240267,-0.208067 2.941267,-0.417335 3.44815,-0.424218 0.31935,-0.0043 0.381834,0.01765 0.438984,0.154418 0.04121,0.09865 0.04235,0.355283 0.0016,0.389016 -0.054,0.04481 -0.409933,0.1087 -1.710417,0.307034 -1.859584,0.283617 -3.193918,0.578317 -4.345635,0.959783 -1.210634,0.400984 -2.185434,0.93635 -2.585367,1.4199 -0.29145,0.352384 -0.36255,0.773451 -0.192651,1.140801 0.420601,0.909334 2.407534,1.789134 5.305785,2.349367 1.141284,0.220617 2.592335,0.422401 3.962635,0.551068 1.031751,0.09687 2.501401,0.13445 4.581453,0.117167 2.452866,-0.02038 3.398067,-0.06902 4.895868,-0.25195 2.337917,-0.285551 4.194384,-0.685385 5.617084,-1.209752 0.520535,-0.191866 0.632984,-0.2394 0.963151,-0.4071 0.683151,-0.346983 1.203538,-0.7761 1.381618,-1.1393 0.28473,-0.580716 -0.0306,-1.171101 -0.943685,-1.766634 -0.981799,-0.640384 -2.693217,-1.181383 -4.939701,-1.5615 -0.631284,-0.106817 -0.976601,-0.157367 -2.157068,-0.315734 -0.536916,-0.07202 -0.773566,-0.112399 -0.797266,-0.135983 -0.04631,-0.04615 -0.04086,-0.291466 0.0095,-0.42315 0.06063,-0.158767 0.119583,-0.192518 0.336083,-0.192401 0.47565,0 2.083317,0.195418 3.516785,0.426968 2.746134,0.443583 5.049622,1.1309 6.503133,1.9404 0.41935,0.23355 0.63767,0.382567 0.93562,0.638633 0.44133,0.379284 0.74162,0.803552 0.82888,1.171118 0.0409,0.17225 0.0354,0.456033 -0.012,0.6176 -0.18185,0.620317 -0.96461,1.358484 -2.000551,1.8866 -2.059864,1.050118 -5.441965,1.830035 -9.589633,2.211351 -0.6308,0.058 -1.302618,0.107717 -1.830335,0.135451 -0.940483,0.04944 -3.951518,0.07862 -5.378717,0.05215 z m -0.1572,-2.881669 c -2.051301,-0.0774 -4.557701,-0.52725 -5.939768,-1.066066 -0.95585,-0.372667 -1.552218,-0.812167 -1.709585,-1.259884 -0.241484,-0.687084 0.543733,-1.380434 2.147101,-1.895901 0.5987,-0.192483 1.834901,-0.4827 2.629701,-0.617366 0.314084,-0.05322 0.966116,-0.119817 0.982084,-0.100317 0.02988,0.03654 0.464366,0.81235 0.464366,0.829183 0,0.03164 -0.04275,0.04957 -0.48285,0.2026 -1.01405,0.3526 -1.381166,0.617334 -1.381166,0.996001 0,0.343684 0.616766,0.686567 1.783582,0.991567 0.881768,0.230483 1.532635,0.3029 3.161651,0.351817 2.143268,0.06433 3.816203,-0.104817 5.08232,-0.513917 0.6494,-0.209817 1.083967,-0.47855 1.192,-0.737101 0.0438,-0.104833 0.04015,-0.176017 -0.0145,-0.283134 -0.1432,-0.280683 -0.6087,-0.566383 -1.289801,-0.791616 -0.375383,-0.124133 -0.460399,-0.170267 -0.460399,-0.249884 0,-0.118533 0.2829,-0.610233 0.420733,-0.73125 l 0.0814,-0.07148 0.203716,0.01184 c 0.112034,0.0065 0.456368,0.05885 0.765167,0.116267 2.387235,0.443883 3.832218,0.97115 4.468969,1.630717 0.195884,0.2029 0.260866,0.346133 0.2758,0.607817 0.01084,0.190801 0.0082,0.205434 -0.06267,0.349467 -0.435117,0.883851 -2.648318,1.683051 -5.703952,2.05975 -0.721767,0.08897 -1.151434,0.123501 -1.841568,0.148001 -0.857183,0.03041 -4.153334,0.04621 -4.772351,0.02285 z m 1.681034,-2.628401 c -1.618768,-0.170533 -2.991951,-1.4171 -3.445451,-3.127767 -0.104534,-0.3943 -0.123234,-0.696917 -0.09333,-1.509584 0.02887,-0.78425 0.0448,-0.881067 0.21445,-1.302283 0.305318,-0.758084 0.573517,-1.274885 1.631701,-3.144135 0.83915,-1.482333 1.061616,-1.889301 1.522284,-2.784817 0.533434,-1.036968 0.721116,-1.388301 0.7818,-1.463517 0.05065,-0.06277 0.0518,-0.06303 0.08647,-0.01872 0.01931,0.0247 0.206767,0.383483 0.416517,0.797267 0.471016,0.929167 0.848633,1.626833 1.694734,3.131134 0.833066,1.48115 1.009834,1.8078 1.337832,2.472168 0.447302,0.906033 0.630435,1.38495 0.674102,1.762966 0.03248,0.281284 0.0333,1.259867 0.0016,1.515917 -0.116,0.926935 -0.437684,1.665785 -1.007084,2.313202 -0.4459,0.506966 -1.142884,0.987616 -1.734568,1.196183 -0.252483,0.089 -0.472283,0.1343 -0.786033,0.162016 -0.290683,0.02568 -1.050784,0.02565 -1.294668,0 z m 0.925584,-0.854483 c 1.24445,-0.1731 2.207167,-1.220534 2.547767,-2.771968 0.06173,-0.281183 0.09027,-0.947417 0.0654,-1.527217 -0.03787,-0.882767 -0.1734,-1.292566 -1.220501,-3.690667 -0.753483,-1.725617 -1.107633,-2.573418 -1.428133,-3.418668 -0.05883,-0.155183 -0.134467,-0.3364 -0.168067,-0.402717 l -0.0611,-0.120567 -0.04019,0.05328 c -0.0221,0.0293 -0.136317,0.296417 -0.2538,0.5936 -0.3039,0.768683 -0.69435,1.700451 -1.31335,3.134234 -0.769083,1.781417 -1.064033,2.530918 -1.224034,3.110451 -0.0475,0.171983 -0.04962,0.219484 -0.04962,1.111684 0,1.05105 0.0062,1.104733 0.194184,1.673134 0.300117,0.907584 0.8513,1.639267 1.504367,1.996984 0.430533,0.235833 0.946733,0.328016 1.447067,0.258433 z m 24.051191,-2.842234 c -0.79657,-0.08643 -1.3788,-0.434484 -1.85692,-1.110051 -0.10752,-0.151933 -0.31875,-0.514733 -0.30632,-0.526133 0.004,-0.0037 0.25485,-0.155767 0.55749,-0.338017 0.30262,-0.18225 0.57098,-0.344933 0.59635,-0.361517 0.0434,-0.02839 0.0554,-0.01617 0.20508,0.211001 0.25327,0.384266 0.51967,0.618899 0.80984,0.713233 0.0893,0.02904 0.17363,0.03623 0.34838,0.02976 0.195281,-0.0072 0.249851,-0.01796 0.356531,-0.07015 0.17653,-0.08637 0.32097,-0.221217 0.39162,-0.365601 0.0536,-0.109633 0.0592,-0.142316 0.0502,-0.297333 -0.008,-0.14295 -0.0238,-0.200233 -0.0866,-0.319583 -0.10395,-0.19745 -0.43229,-0.523733 -1.009451,-1.003151 -0.86085,-0.715034 -1.27078,-1.122717 -1.53128,-1.522817 -0.36314,-0.55775 -0.43241,-1.182983 -0.19457,-1.756033 0.18602,-0.448168 0.65412,-0.885768 1.13542,-1.061418 0.72383,-0.264167 1.522591,-0.149033 2.184951,0.314967 0.18238,0.12775 0.79538,0.723234 0.78261,0.760251 -0.005,0.0125 -0.2422,0.229783 -0.5287,0.482966 l -0.52088,0.460317 -0.11455,-0.14395 c -0.35159,-0.441833 -0.76227,-0.673167 -1.120401,-0.631067 -0.30815,0.03621 -0.53978,0.24435 -0.54127,0.486367 -0.002,0.285133 0.1675,0.465984 1.459291,1.559184 0.7955,0.673233 1.11566,1.023317 1.31415,1.43695 0.14991,0.312467 0.17945,0.46705 0.17811,0.932417 -10e-4,0.386 -0.005,0.429484 -0.0619,0.61285 -0.23777,0.77295 -0.85162,1.306267 -1.68616,1.464934 -0.18606,0.03538 -0.649341,0.05915 -0.810961,0.04162 z m 7.096772,-0.0092 c -0.45015,-0.04572 -0.98919,-0.1954 -1.34417,-0.373267 -0.81333,-0.407533 -1.5473,-1.20865 -1.889681,-2.062567 -0.36596,-0.912668 -0.37556,-2.0424 -0.025,-2.949951 0.424111,-1.098167 1.335051,-1.962868 2.454001,-2.329401 0.43298,-0.141833 0.678,-0.177466 1.220381,-0.177466 0.534,0 0.77984,0.03471 1.19602,0.168883 0.2836,0.09145 0.74731,0.326733 1.00481,0.509867 0.26197,0.186299 0.75272,0.6692 0.94154,0.9265 0.508191,0.692451 0.743451,1.440517 0.742461,2.360984 0,0.598334 -0.0742,1.012001 -0.26843,1.508718 -0.188631,0.482466 -0.451481,0.870833 -0.876931,1.295666 -0.52285,0.5221 -1.03,0.825651 -1.66767,0.9982 -0.4371,0.118267 -1.04423,0.168817 -1.487281,0.123834 z m 1.046681,-1.45815 c 0.6334,-0.1641 1.23228,-0.660117 1.54648,-1.280867 0.30087,-0.594451 0.35302,-1.425801 0.13032,-2.077384 -0.26377,-0.771684 -0.9366,-1.401167 -1.72015,-1.609334 -0.24615,-0.06538 -0.773001,-0.08155 -1.055301,-0.03236 -0.52265,0.09105 -0.94449,0.3188 -1.31885,0.712067 -0.19866,0.2087 -0.29918,0.3475 -0.41453,0.57245 -0.19035,0.37115 -0.27067,0.743566 -0.27077,1.255516 0,0.500668 0.0686,0.818001 0.26007,1.201501 0.29488,0.590634 0.91725,1.087901 1.5768,1.2599 0.34893,0.09098 0.911531,0.09033 1.265931,-0.0017 z m 11.387803,1.456533 c -0.79543,-0.09237 -1.4821,-0.511117 -1.85578,-1.1317 -0.13989,-0.2323 -0.21089,-0.459917 -0.28722,-0.920734 -0.0473,-0.285383 -0.0486,-0.352533 -0.0561,-2.981317 l -0.008,-2.689368 0.71867,0 0.71867,0 0.008,2.700602 c 0.009,2.9645 0.006,2.8883 0.14428,3.143117 0.12095,0.22235 0.37245,0.4106 0.62375,0.466933 0.14166,0.03174 0.48864,0.03162 0.63074,0 0.27616,-0.06188 0.5594,-0.271 0.67436,-0.49785 0.13174,-0.259983 0.12864,-0.18945 0.13758,-3.123201 l 0.008,-2.689351 0.71772,0 0.71772,0 0,2.610751 c 0,2.665568 -0.007,2.927235 -0.0887,3.332334 -0.12392,0.615034 -0.636,1.250034 -1.24912,1.548984 -0.42308,0.206284 -1.0134,0.293983 -1.55533,0.23105 z m 15.03183,0.0017 c -0.45017,-0.0457 -0.98918,-0.195383 -1.34418,-0.373266 -0.81332,-0.407534 -1.54729,-1.208634 -1.88969,-2.062567 -0.36596,-0.912668 -0.37554,-2.042384 -0.025,-2.949935 0.42414,-1.098184 1.33507,-1.962868 2.454,-2.329417 0.433,-0.141834 0.67802,-0.177467 1.22038,-0.177467 0.53402,0 0.77986,0.03471 1.19602,0.1689 0.2836,0.09143 0.74734,0.326733 1.00484,0.50985 0.26196,0.1863 0.75269,0.669216 0.94153,0.9265 0.50818,0.692468 0.74343,1.440535 0.74247,2.360984 0,0.598335 -0.0742,1.012017 -0.26844,1.508735 -0.18865,0.482466 -0.4515,0.870833 -0.87693,1.29565 -0.52285,0.5221 -1.03,0.825667 -1.66767,0.9982 -0.43712,0.118283 -1.04423,0.168833 -1.48728,0.123833 z m 1.04668,-1.45815 c 0.6334,-0.164083 1.23229,-0.660117 1.54647,-1.280867 0.30088,-0.594434 0.35303,-1.425784 0.13032,-2.077367 -0.26375,-0.771684 -0.93659,-1.401184 -1.72016,-1.609334 -0.24613,-0.06538 -0.773,-0.08155 -1.05529,-0.03236 -0.52264,0.09103 -0.94447,0.3188 -1.31884,0.712066 -0.19867,0.208684 -0.29918,0.3475 -0.41455,0.572434 -0.19035,0.371167 -0.27065,0.743567 -0.27075,1.255517 0,0.500667 0.0686,0.818 0.26007,1.201518 0.29488,0.590616 0.91723,1.0879 1.5768,1.259883 0.34891,0.091 0.91153,0.09033 1.26593,-0.0017 z m 13.88797,1.467367 c -0.79658,-0.08643 -1.3788,-0.4345 -1.8569,-1.110067 -0.10754,-0.151917 -0.31878,-0.514716 -0.30634,-0.526116 0.004,-0.0037 0.25486,-0.155767 0.55748,-0.338017 0.30262,-0.182268 0.57098,-0.344934 0.59638,-0.361518 0.0435,-0.02839 0.0554,-0.01617 0.20506,0.211 0.25326,0.384268 0.51966,0.618884 0.80984,0.713234 0.0893,0.02902 0.17362,0.03623 0.34838,0.02976 0.19528,-0.0072 0.24984,-0.01796 0.35654,-0.07017 0.17652,-0.08637 0.32096,-0.221216 0.3916,-0.365584 0.0536,-0.10965 0.0591,-0.142332 0.0502,-0.29735 -0.008,-0.14295 -0.0238,-0.200216 -0.0866,-0.319566 -0.10394,-0.197466 -0.43228,-0.52375 -1.00944,-1.003167 -0.86086,-0.715017 -1.2708,-1.1227 -1.5313,-1.5228 -0.3631,-0.557768 -0.43238,-1.183 -0.19456,-1.756034 0.18602,-0.448167 0.65412,-0.885768 1.13542,-1.061417 0.72384,-0.264167 1.5226,-0.149034 2.18496,0.31495 0.18238,0.127766 0.79538,0.723233 0.7826,0.760251 -0.004,0.0125 -0.2422,0.2298 -0.5287,0.482966 l -0.52088,0.460334 -0.11454,-0.14395 c -0.35158,-0.44185 -0.76226,-0.673168 -1.1204,-0.631084 -0.30816,0.03621 -0.53978,0.24435 -0.54128,0.486366 -6.6e-4,0.28515 0.1675,0.466 1.45928,1.559201 0.79552,0.673217 1.11568,1.0233 1.31416,1.43695 0.14994,0.312468 0.17946,0.467034 0.17812,0.932418 -6.7e-4,0.386 -0.006,0.429482 -0.0619,0.61285 -0.23777,0.77295 -0.85162,1.30625 -1.68615,1.464933 -0.18607,0.03536 -0.64935,0.05915 -0.81097,0.04162 z m -36.752752,-3.960985 0,-3.772967 0.718673,0 0.718647,0 0,3.088001 0,3.088001 1.04432,0 1.0443,0 0,0.684967 0,0.684966 -1.762967,0 -1.762973,0 0,-3.772968 z m 11.925272,0.719001 0,-3.053967 -0.66811,-0.006 -0.66814,-0.006 -0.006,-0.713168 -0.006,-0.713166 2.08332,0.0057 2.08331,0.0057 0,0.707434 0,0.707433 -0.67938,0.006 -0.67935,0.006 0,3.053985 0,3.053966 -0.72988,0 -0.7299,0 0,-3.053966 z m 3.72806,-0.719001 0,-3.772967 0.70744,0 0.70742,0 0,3.772967 0,3.772968 -0.70742,0 -0.70744,0 0,-3.772968 z m 11.81853,0.0057 0.006,-3.767351 0.68397,0 0.68398,0 1.60675,2.452285 c 0.88372,1.34875 1.61433,2.459584 1.62359,2.468517 0.009,0.009 0.0169,-1.097251 0.0169,-2.458201 l 0,-2.474451 0.71305,0.0058 0.71305,0.006 0.006,3.767351 0.006,3.767351 -0.69453,0 -0.69455,0 -1.6131,-2.46285 -1.61308,-2.462851 -0.006,2.462851 -0.006,2.46285 -0.71862,0 -0.71864,0 0.006,-3.767351 z m -66.953255,-15.737455 0,-8.70252 2.335634,0 2.335651,0 0,8.70252 0,8.702536 -2.335651,0 -2.335634,0 0,-8.702536 z m -23.042058,-0.02257 0,-8.680169 2.307583,0.0057 2.307568,0.0057 0.0057,3.205901 0.0057,3.205901 4.738519,0 4.738502,0 0.0057,-3.205901 0.0057,-3.205901 2.307583,-0.0057 2.307568,-0.0057 0,8.680169 0,8.680186 -2.313184,0 -2.313185,0 0,-3.413635 0,-3.41365 -4.738668,0 -4.738669,0 0,3.41365 0,3.413635 -2.3132,0 -2.313184,0 0,-8.680186 z m 39.885665,0 0,-8.680069 2.33563,0 2.335651,0 0,6.623068 0,6.623086 4.699371,0.012 c 2.584651,0.0067 4.760002,0.0207 4.834122,0.03123 0.1064,0.01517 0.1508,0.03449 0.21108,0.09198 l 0.0763,0.07282 0.0181,0.285417 c 0.01,0.156984 0.0185,1.035818 0.0191,1.952952 l 0.001,1.667516 -7.265202,0 -7.265202,0 0,-8.680069 z m 17.921595,0 0,-8.680187 1.97069,0.0057 1.970701,0.0058 0.006,8.674453 0.006,8.674453 -1.976331,0 -1.97635,0 0,-8.680203 z m 13.452413,2.133651 0,-6.546552 -3.13291,0 -3.132912,0 0,-2.133517 0,-2.133519 8.702522,0 8.70254,0 0,2.133519 0,2.133517 -3.05431,0 -3.0543,0 0,6.546552 0,6.546551 -2.51531,0 -2.51532,0 0,-6.546551 z m 14.37321,-2.133551 0,-8.680103 8.05685,0.0057 8.05687,0.0057 0.006,2.127901 0.006,2.1279 -5.828,0 -5.828,0 0,1.078002 0,1.077983 5.82788,0 5.82788,0 0,2.054918 0,2.054933 -5.82788,0 -5.82788,0 0,1.437318 0,1.437317 5.79476,0 5.79476,0 0.0265,0.06177 c 0.0195,0.04528 0.0288,0.572084 0.035,1.976302 l 0.008,1.914566 -8.06432,0 -8.0643,0 0,-8.680102 z m -55.404223,2.414268 0,-2.290734 3.750501,0 3.750519,0 0,2.290734 0,2.290717 -3.750519,0 -3.750501,0 0,-2.290717 z"
     id="path4683"
     inkscape:connector-curvature="0"
     inkscape:export-xdpi="20.212317"
     inkscape:export-ydpi="20.212317" />
</svg>
