<?xml version="1.0" encoding="UTF-8" standalone="no"?>
<!-- Created with Inkscape (http://www.inkscape.org/) -->

<svg
   xmlns:dc="http://purl.org/dc/elements/1.1/"
   xmlns:cc="http://creativecommons.org/ns#"
   xmlns:rdf="http://www.w3.org/1999/02/22-rdf-syntax-ns#"
   xmlns:svg="http://www.w3.org/2000/svg"
   xmlns="http://www.w3.org/2000/svg"
   xmlns:sodipodi="http://sodipodi.sourceforge.net/DTD/sodipodi-0.dtd"
   xmlns:inkscape="http://www.inkscape.org/namespaces/inkscape"
   id="svg4133"
   version="1.1"
   inkscape:version="0.91 r13725"
   width="168.411"
   height="75"
   viewBox="0 0 168.41099 75"
   sodipodi:docname="logo.svg">
  <metadata
     id="metadata4139">
    <rdf:RDF>
      <cc:Work
         rdf:about="">
        <dc:format>image/svg+xml</dc:format>
        <dc:type
           rdf:resource="http://purl.org/dc/dcmitype/StillImage" />
        <dc:title></dc:title>
      </cc:Work>
    </rdf:RDF>
  </metadata>
  <defs
     id="defs4137" />
  <sodipodi:namedview
     pagecolor="#ffffff"
     bordercolor="#666666"
     borderopacity="1"
     objecttolerance="10"
     gridtolerance="10"
     guidetolerance="10"
     inkscape:pageopacity="0"
     inkscape:pageshadow="2"
     inkscape:window-width="1360"
     inkscape:window-height="705"
     id="namedview4135"
     showgrid="false"
     inkscape:zoom="16.746088"
     inkscape:cx="102.09302"
     inkscape:cy="49.875945"
     inkscape:window-x="-8"
     inkscape:window-y="-8"
     inkscape:window-maximized="1"
     inkscape:current-layer="svg4133" />
  <path
     style="fill:#ffffff"
     d="M 32.777914,74.984317 C 14.766459,74.952747 10.565457,74.930017 10.123256,74.861767 8.5035562,74.611693 6.7563322,73.754668 5.2994572,72.495666 4.5272562,71.828342 3.6852812,70.890216 3.0572052,69.997341 1.6784052,68.037267 0.68340524,65.47319 0.20090524,62.63669 c -0.105795,-0.622051 -0.125025,-0.827351 -0.159275,-1.701202 -0.05595,-1.4273 -0.05577,-45.453586 2e-4,-46.842061 0.0514,-1.275676 0.17055,-2.053627 0.536524,-3.503452 C 1.1628292,8.2746754 2.2783302,5.9386504 3.5704302,4.3241484 c 0.333851,-0.41715 1.329975,-1.43775 1.800176,-1.844424 1.4097,-1.219226 2.749475,-1.90032601 4.466326,-2.27057601 l 0.4042498,-0.08718 2.560226,-0.0276 c 11.662179,-0.12582 131.137862,-0.12582 142.800032,0 l 2.56026,0.0276 0.40422,0.08718 c 0.90447,0.19505 1.58509,0.432275 2.34127,0.81600001 1.06769,0.5418 1.94855,1.219875 3.06596,2.360126 0.68505,0.699024 1.0196,1.10765 1.49963,1.8316 1.40476,2.11855 2.30674,4.523451 2.76481,7.3716766 0.0597,0.3716 0.0948,0.7724 0.1182,1.353301 0.05,1.236575 0.0777,38.062209 0.0329,43.355411 -0.0218,2.562151 -0.0506,4.382351 -0.0722,4.564625 -0.27912,2.353801 -1.09657,4.930203 -2.17054,6.841028 -1.8875,3.35825 -4.59491,5.509027 -7.7147,6.1286 l -0.43793,0.08697 -6.70375,0.03274 c -8.50323,0.04158 -99.210802,0.06687 -118.511581,0.03307 z M 158.17853,72.960992 c 1.51474,-0.434501 2.53101,-0.962201 3.63915,-1.8896 1.64322,-1.375202 3.00299,-3.523502 3.84173,-6.069452 0.30969,-0.940175 0.65362,-2.482276 0.73785,-3.308476 0.0191,-0.1853 0.0507,-2.156001 0.0707,-4.379351 0.0456,-5.082826 0.0195,-42.019085 -0.0306,-43.220686 -0.0208,-0.49485 -0.0605,-0.971825 -0.1026,-1.229576 -0.29423,-1.798601 -0.83198,-3.5444506 -1.53098,-4.9703746 -0.32568,-0.664376 -0.50001,-0.968051 -0.91768,-1.598627 -1.03283,-1.559251 -2.26913,-2.709325 -3.7261,-3.466201 -0.5734,-0.297874 -1.08633,-0.499674 -1.75969,-0.692325 l -0.53636,-0.153425 -73.661798,0 -73.66179,0 -0.520074,0.14853 c -0.7250268,0.207075 -1.0375008,0.326326 -1.6440258,0.6274 -1.930725,0.958401 -3.507776,2.634576 -4.705702,5.001427 -0.7293,1.440951 -1.211325,2.9395496 -1.549449,4.8172496 l -0.121305,0.673751 -0.03758,1.953875 c -0.05268,2.738026 -0.05193,41.185485 0,44.315512 0.03701,2.194776 0.04129,2.290449 0.12348,2.750501 0.544674,3.04895 1.501449,5.326475 3.084826,7.343152 0.3588,0.456999 1.1892,1.294649 1.637625,1.651975 1.074825,0.856425 2.288225,1.436526 3.5165248,1.6812 0.259651,0.05174 0.834401,0.05916 6.164751,0.0798 3.233127,0.01245 36.356086,0.02558 73.606546,0.029 l 67.728111,0.0063 0.35374,-0.101475 z M 43.119867,70.412517 C 41.097266,70.375002 37.71254,70.071966 35.06864,69.691666 29.694163,68.91859 25.160037,67.54154 23.235086,66.097715 c -0.79435,-0.5958 -1.551576,-1.420451 -1.721599,-1.874925 -0.14058,-0.375651 -0.166176,-0.903401 -0.06473,-1.333451 0.157299,-0.666675 0.926649,-1.535076 1.947249,-2.197926 1.979126,-1.2854 5.765877,-2.47 10.358829,-3.24055 1.8604,-0.3121 4.4119,-0.626001 5.172225,-0.636326 0.479025,-0.0065 0.572751,0.02648 0.658476,0.231626 0.06182,0.147975 0.06353,0.532925 0.0024,0.583524 -0.081,0.06722 -0.6149,0.16305 -2.565626,0.460551 -2.789375,0.425426 -4.790876,0.867476 -6.518451,1.439675 -1.815951,0.601476 -3.278151,1.404525 -3.878051,2.12985 -0.437175,0.528575 -0.543825,1.160176 -0.288976,1.711201 0.630901,1.364001 3.611301,2.683701 7.958677,3.524051 1.711926,0.330925 3.888501,0.6336 5.943952,0.826601 1.547625,0.145305 3.752101,0.201675 6.872178,0.17575 3.679299,-0.03057 5.0971,-0.10353 7.343801,-0.377925 3.506875,-0.428325 6.291576,-1.028076 8.425626,-1.814627 0.780802,-0.287799 0.949475,-0.3591 1.444726,-0.61065 1.024726,-0.520475 1.805307,-1.16415 2.072427,-1.70895 0.427095,-0.871074 -0.0459,-1.756651 -1.415528,-2.64995 -1.472698,-0.960576 -4.039824,-1.772075 -7.409551,-2.342251 -0.946925,-0.160225 -1.4649,-0.23605 -3.235601,-0.473601 -0.805374,-0.10803 -1.160349,-0.168598 -1.195899,-0.203974 -0.06947,-0.06922 -0.06129,-0.437199 0.01425,-0.634725 0.09094,-0.238151 0.179374,-0.288776 0.504124,-0.288601 0.713475,0 3.124976,0.293126 5.275177,0.640451 4.119201,0.665375 7.574433,1.69635 9.754699,2.910601 0.629025,0.350325 0.956505,0.57385 1.40343,0.957949 0.661995,0.568926 1.11243,1.205327 1.24332,1.756676 0.06135,0.258375 0.0531,0.68405 -0.018,0.9264 -0.272775,0.930476 -1.446915,2.037727 -3.000826,2.829901 -3.089796,1.575176 -8.162947,2.745051 -14.384449,3.317025 -0.9462,0.087 -1.953926,0.161576 -2.745501,0.203177 -1.410725,0.07416 -5.927277,0.11793 -8.068076,0.07823 z m -0.2358,-4.322503 c -3.076952,-0.1161 -6.836551,-0.790875 -8.909652,-1.599099 -1.433775,-0.559001 -2.328326,-1.218251 -2.564377,-1.889826 -0.362226,-1.030625 0.8156,-2.07065 3.220651,-2.843851 0.89805,-0.288725 2.752351,-0.72405 3.944551,-0.926049 0.471126,-0.07983 1.449175,-0.179726 1.473126,-0.150476 0.04482,0.05481 0.69655,1.218526 0.69655,1.243775 0,0.04746 -0.06413,0.07436 -0.724275,0.3039 -1.521075,0.5289 -2.07175,0.926001 -2.07175,1.494002 0,0.515525 0.92515,1.029849 2.675374,1.487349 1.322651,0.345725 2.298952,0.45435 4.742476,0.527726 3.214901,0.09649 5.724303,-0.157226 7.623479,-0.770876 0.9741,-0.314725 1.62595,-0.717825 1.788,-1.10565 0.0657,-0.15725 0.06022,-0.264026 -0.02175,-0.424701 -0.2148,-0.421025 -0.91305,-0.849575 -1.934702,-1.187424 -0.563074,-0.1862 -0.690598,-0.255401 -0.690598,-0.374826 0,-0.1778 0.42435,-0.91535 0.631099,-1.096876 l 0.1221,-0.10722 0.305574,0.01776 c 0.168051,0.0097 0.684552,0.08828 1.147751,0.174401 3.580852,0.665825 5.748326,1.456725 6.703452,2.446076 0.293826,0.30435 0.3913,0.519199 0.4137,0.911725 0.01626,0.286201 0.0123,0.30815 -0.09401,0.5242 -0.652676,1.325776 -3.972477,2.524577 -8.555928,3.089625 -1.08265,0.133455 -1.72715,0.185252 -2.762351,0.222002 -1.285775,0.04561 -6.230001,0.06932 -7.158527,0.03428 z m 2.52155,-3.942601 c -2.428151,-0.255799 -4.487926,-2.12565 -5.168176,-4.691651 -0.1568,-0.59145 -0.18485,-1.045374 -0.139995,-2.264375 0.04331,-1.176375 0.0672,-1.321601 0.321676,-1.953425 0.457976,-1.137126 0.860275,-1.912326 2.447551,-4.716202 1.258725,-2.223499 1.592424,-2.83395 2.283425,-4.177224 0.800151,-1.555453 1.081675,-2.082452 1.1727,-2.195276 0.07597,-0.09415 0.0777,-0.09455 0.129705,-0.02808 0.02896,0.03705 0.310151,0.575224 0.624776,1.195901 0.706524,1.39375 1.272949,2.440249 2.5421,4.6967 1.2496,2.221725 1.514751,2.7117 2.006749,3.708251 0.670952,1.35905 0.945652,2.077425 1.011152,2.64445 0.04872,0.421926 0.04995,1.8898 0.0024,2.273875 -0.174,1.390402 -0.656526,2.498677 -1.510625,3.469803 -0.668851,0.760449 -1.714326,1.481424 -2.601852,1.794274 -0.378725,0.1335 -0.708425,0.20145 -1.17905,0.243024 -0.436024,0.03852 -1.576175,0.03847 -1.942001,0 z m 1.388376,-1.281724 c 1.866675,-0.25965 3.31075,-1.830802 3.821651,-4.157952 0.09259,-0.421774 0.135405,-1.421125 0.0981,-2.290825 -0.0568,-1.324151 -0.260101,-1.93885 -1.830752,-5.536 -1.130224,-2.588426 -1.661449,-3.860127 -2.142199,-5.128002 -0.08825,-0.232774 -0.201701,-0.5046 -0.252101,-0.604076 l -0.09165,-0.18085 -0.06029,0.07992 c -0.03315,0.04395 -0.204476,0.444626 -0.3807,0.8904 -0.45585,1.153025 -1.041525,2.550676 -1.970025,4.70135 -1.153625,2.672126 -1.59605,3.796377 -1.836052,4.665676 -0.07125,0.257975 -0.07443,0.329226 -0.07443,1.667527 0,1.576575 0.0093,1.657099 0.291276,2.5097 0.450176,1.361376 1.27695,2.458901 2.256551,2.995476 0.6458,0.35375 1.4201,0.492024 2.170601,0.38765 z m 36.076784,-4.263351 c -1.194855,-0.129645 -2.0682,-0.651726 -2.78538,-1.665076 -0.16128,-0.2279 -0.478125,-0.7721 -0.45948,-0.7892 0.006,-0.0056 0.382275,-0.233651 0.836235,-0.507026 0.45393,-0.273375 0.85647,-0.517399 0.894525,-0.542275 0.0651,-0.04258 0.0831,-0.02425 0.30762,0.316501 0.379905,0.576399 0.779505,0.928349 1.21476,1.06985 0.13395,0.04356 0.260445,0.05434 0.52257,0.04464 0.29292,-0.0108 0.374775,-0.02694 0.534795,-0.105225 0.264795,-0.129555 0.481455,-0.331826 0.58743,-0.548402 0.0804,-0.164449 0.0888,-0.213474 0.0753,-0.445999 -0.012,-0.214425 -0.0357,-0.30035 -0.1299,-0.479375 -0.155925,-0.296175 -0.648435,-0.785599 -1.514175,-1.504725 -1.291275,-1.072551 -1.90617,-1.684076 -2.29692,-2.284226 -0.54471,-0.836625 -0.648615,-1.774475 -0.291855,-2.63405 0.27903,-0.672251 0.98118,-1.328651 1.70313,-1.592126 1.085745,-0.39625 2.283885,-0.223549 3.277426,0.472451 0.27357,0.191625 1.19307,1.08485 1.173915,1.140375 -0.0075,0.01875 -0.3633,0.344675 -0.79305,0.724449 l -0.78132,0.690476 -0.171825,-0.215925 c -0.527386,-0.66275 -1.143406,-1.009751 -1.680601,-0.946601 -0.462225,0.05432 -0.80967,0.366525 -0.811905,0.729551 -0.003,0.427699 0.25125,0.698976 2.188935,2.338776 1.193251,1.00985 1.673491,1.534975 1.971226,2.155424 0.224865,0.468701 0.269175,0.700575 0.267165,1.398626 -0.0015,0.579 -0.0075,0.644226 -0.09285,0.919275 -0.356655,1.159425 -1.27743,1.959401 -2.529241,2.197401 -0.27909,0.05307 -0.97401,0.08873 -1.21644,0.06243 z m 10.645157,-0.0138 c -0.675225,-0.06858 -1.483785,-0.2931 -2.016255,-0.5599 -1.219995,-0.6113 -2.320951,-1.812975 -2.834521,-3.093851 -0.54894,-1.369001 -0.56334,-3.063599 -0.0375,-4.424926 0.636165,-1.647251 2.002576,-2.944301 3.681001,-3.494101 0.64947,-0.212749 1.017,-0.266199 1.83057,-0.266199 0.801,0 1.16976,0.05206 1.794031,0.253325 0.4254,0.137175 1.120965,0.490099 1.507215,0.7648 0.392955,0.279449 1.12908,1.003799 1.41231,1.389749 0.762285,1.038677 1.115175,2.160776 1.11369,3.541477 0,0.8975 -0.1113,1.518 -0.402645,2.263076 -0.282945,0.723699 -0.67722,1.30625 -1.315395,1.943499 -0.784275,0.78315 -1.545,1.238477 -2.501505,1.4973 -0.655651,0.177401 -1.566346,0.253226 -2.230921,0.185751 z m 1.57002,-2.187225 c 0.950101,-0.24615 1.848421,-0.990176 2.319721,-1.921301 0.451305,-0.891675 0.52953,-2.1387 0.19548,-3.116075 -0.395655,-1.157526 -1.4049,-2.101751 -2.580226,-2.414001 -0.369225,-0.09807 -1.1595,-0.122325 -1.58295,-0.04854 -0.783975,0.136575 -1.416735,0.4782 -1.978275,1.0681 -0.29799,0.31305 -0.44877,0.52125 -0.621795,0.858676 -0.285525,0.556725 -0.406005,1.115349 -0.406155,1.883274 0,0.751001 0.1029,1.227 0.390105,1.80225 0.44232,0.885951 1.375875,1.631852 2.3652,1.889851 0.523395,0.13647 1.367295,0.135495 1.898895,-0.0025 z m 17.081706,2.1848 c -1.19315,-0.138555 -2.22315,-0.766676 -2.78367,-1.69755 -0.20984,-0.34845 -0.31634,-0.689876 -0.43083,-1.381102 -0.0709,-0.428074 -0.0729,-0.528799 -0.0841,-4.471974 l -0.012,-4.034052 1.078,0 1.07801,0 0.012,4.050903 c 0.0135,4.446749 0.009,4.332449 0.21642,4.714674 0.18142,0.333525 0.55867,0.615901 0.93562,0.7004 0.21248,0.04761 0.73296,0.04743 0.94611,0 0.41423,-0.09282 0.8391,-0.4065 1.01153,-0.746775 0.19762,-0.389975 0.19297,-0.284175 0.20637,-4.684801 l 0.012,-4.034026 1.07658,0 1.07659,0 0,3.916126 c 0,3.998351 -0.0105,4.390852 -0.13305,4.9985 -0.18588,0.922552 -0.954,1.875052 -1.87368,2.323477 -0.63462,0.309426 -1.52011,0.440974 -2.33299,0.346575 z m 22.54774,0.0025 c -0.67526,-0.06855 -1.48377,-0.293075 -2.01627,-0.559899 -1.21998,-0.611301 -2.32094,-1.812951 -2.83454,-3.093851 -0.54893,-1.369001 -0.5633,-3.063575 -0.0375,-4.424902 0.63621,-1.647275 2.00261,-2.944301 3.681,-3.494125 0.6495,-0.212751 1.01703,-0.2662 1.83057,-0.2662 0.80103,0 1.16979,0.05207 1.79403,0.25335 0.4254,0.137145 1.12101,0.490099 1.50726,0.764775 0.39294,0.27945 1.12904,1.003824 1.4123,1.38975 0.76227,1.038701 1.11514,2.160802 1.1137,3.541475 0,0.897502 -0.1113,1.518026 -0.40266,2.263102 -0.28297,0.723699 -0.67725,1.30625 -1.31539,1.943475 -0.78428,0.78315 -1.545,1.238501 -2.50151,1.4973 -0.65568,0.177425 -1.56634,0.25325 -2.23092,0.18575 z m 1.57002,-2.187225 c 0.9501,-0.246125 1.84843,-0.990175 2.3197,-1.921301 0.45132,-0.89165 0.52955,-2.138675 0.19548,-3.11605 -0.39562,-1.157525 -1.40488,-2.101776 -2.58024,-2.414001 -0.36919,-0.09807 -1.1595,-0.122325 -1.58293,-0.04854 -0.78396,0.136545 -1.41671,0.4782 -1.97826,1.0681 -0.29801,0.313025 -0.44877,0.52125 -0.62183,0.85865 -0.28552,0.556751 -0.40597,1.115351 -0.40612,1.883276 0,0.751001 0.1029,1.227 0.3901,1.802276 0.44232,0.885924 1.37585,1.63185 2.3652,1.889825 0.52337,0.1365 1.3673,0.135495 1.8989,-0.0025 z m 20.83195,2.20105 c -1.19486,-0.129645 -2.0682,-0.65175 -2.78535,-1.6651 -0.1613,-0.227876 -0.47816,-0.772074 -0.4595,-0.789174 0.006,-0.0056 0.38228,-0.233651 0.83622,-0.507026 0.45392,-0.273401 0.85647,-0.517401 0.89456,-0.542276 0.0653,-0.04259 0.0831,-0.02425 0.30759,0.3165 0.3799,0.576401 0.7795,0.928325 1.21476,1.06985 0.13395,0.04353 0.26044,0.05434 0.52257,0.04464 0.29293,-0.0108 0.37477,-0.02694 0.53481,-0.105255 0.26479,-0.129555 0.48144,-0.331824 0.58741,-0.548375 0.0804,-0.164475 0.0887,-0.213499 0.0753,-0.446025 -0.012,-0.214425 -0.0357,-0.300325 -0.1299,-0.47935 -0.15592,-0.296199 -0.64842,-0.785625 -1.51417,-1.504749 -1.29128,-1.072526 -1.90619,-1.684051 -2.29694,-2.284201 -0.54466,-0.836651 -0.64858,-1.7745 -0.29184,-2.634051 0.27902,-0.67225 0.98118,-1.328651 1.70313,-1.592125 1.08575,-0.39625 2.28389,-0.223551 3.27743,0.472425 0.27357,0.191649 1.19307,1.08485 1.17391,1.140376 -0.006,0.01875 -0.3633,0.3447 -0.79305,0.724449 l -0.78132,0.690501 -0.17181,-0.215925 c -0.52738,-0.662775 -1.1434,-1.009751 -1.68061,-0.946626 -0.46223,0.05432 -0.80967,0.366525 -0.81191,0.72955 -0.001,0.427725 0.25125,0.699 2.18892,2.338801 1.19327,1.009825 1.67351,1.53495 1.97124,2.155425 0.2249,0.468701 0.26918,0.70055 0.26717,1.398626 -0.001,0.579 -0.009,0.644224 -0.0928,0.919275 -0.35666,1.159425 -1.27743,1.959375 -2.52923,2.1974 -0.2791,0.05304 -0.97402,0.08873 -1.21645,0.06243 z m -55.12912,-5.941477 0,-5.65945 1.07801,0 1.07797,0 0,4.632001 0,4.632001 1.56648,0 1.56645,0 0,1.027451 0,1.027449 -2.64445,0 -2.64446,0 0,-5.659452 z m 17.88791,1.078501 0,-4.58095 -1.00217,-0.009 -1.00221,-0.009 -0.009,-1.069751 -0.009,-1.069749 3.12498,0.0085 3.12496,0.0085 0,1.06115 0,1.061149 -1.01906,0.009 -1.01903,0.009 0,4.580977 0,4.58095 -1.09482,0 -1.09485,0 0,-4.58095 z m 5.59208,-1.078501 0,-5.65945 1.06116,0 1.06114,0 0,5.65945 0,5.659452 -1.06114,0 -1.06116,0 0,-5.659452 z m 17.7278,0.0085 0.009,-5.651026 1.02595,0 1.02597,0 2.41013,3.678427 c 1.32558,2.023124 2.4215,3.689375 2.43539,3.702775 0.0135,0.0135 0.0254,-1.645876 0.0254,-3.687301 l 0,-3.711676 1.06958,0.0087 1.06957,0.009 0.009,5.651026 0.009,5.651026 -1.04179,0 -1.04183,0 -2.41964,-3.694275 -2.41962,-3.694276 -0.009,3.694276 -0.009,3.694275 -1.07793,0 -1.07796,0 0.009,-5.651026 z M 42.766167,27.06328 l 0,-13.053778 3.50345,0 3.503476,0 0,13.053778 0,13.053803 -3.503476,0 -3.50345,0 0,-13.053803 z m -34.5630848,-0.03385 0,-13.020253 3.4613748,0.0085 3.461352,0.0085 0.0085,4.808851 0.0085,4.808851 7.107777,0 7.107753,0 0.0085,-4.808851 0.0085,-4.808851 3.461375,-0.0085 3.461351,-0.0085 0,13.020253 0,13.020278 -3.469775,0 -3.469777,0 0,-5.120452 0,-5.120475 -7.108002,0 -7.108002,0 0,5.120475 0,5.120452 -3.469801,0 -3.4697758,0 0,-13.020278 z m 59.8284918,0 0,-13.020103 3.503446,0 3.503476,0 0,9.934602 0,9.934628 7.049056,0.018 c 3.876976,0.01005 7.140001,0.03105 7.251181,0.04685 0.1596,0.02276 0.2262,0.05173 0.31662,0.13797 l 0.11445,0.10923 0.02715,0.428126 c 0.015,0.235476 0.02775,1.553726 0.02865,2.929427 l 0.0015,2.501274 -10.897802,0 -10.897802,0 0,-13.020102 z m 26.88239,0 0,-13.020279 2.956036,0.0085 2.95605,0.0087 0.009,13.011678 0.009,13.011679 -2.964495,0 -2.964526,0 0,-13.020304 z m 20.178616,3.200476 0,-9.819827 -4.69936,0 -4.69937,0 0,-3.200276 0,-3.200277 13.05378,0 13.05381,0 0,3.200277 0,3.200276 -4.58146,0 -4.58146,0 0,9.819827 0,9.819826 -3.77296,0 -3.77298,0 0,-9.819826 z m 21.55981,-3.200326 0,-13.020154 12.08528,0.0085 12.0853,0.0085 0.009,3.191851 0.009,3.19185 -8.742,0 -8.742,0 0,1.617002 0,1.616975 8.74183,0 8.74182,0 0,3.082376 0,3.0824 -8.74182,0 -8.74183,0 0,2.155976 0,2.155976 8.69215,0 8.69213,0 0.0397,0.09266 c 0.0292,0.06792 0.0432,0.858126 0.0525,2.964452 l 0.012,2.871849 -12.09648,0 -12.09646,0 0,-13.020152 z m -83.106321,3.621401 0,-3.436101 5.625751,0 5.625778,0 0,3.436101 0,3.436076 -5.625778,0 -5.625751,0 0,-3.436076 z"
     id="path4683"
     inkscape:connector-curvature="0"
     inkscape:export-xdpi="20.212317"
     inkscape:export-ydpi="20.212317" />
</svg>
